# xmcd
#
# Track frame offsets:
#	150
#	10471
#	27828
#	42298
#	60970
#	75469
#	85579
#	96972
#	110463
#	124035
#
# Disc length: 1907 seconds
#
# Revision: 2
# Processed by: cddbd v1.5.2PL0 Copyright (c) Steve Scherf et al.
# Submitted via: audiograbber 1.83.01
#
DISCID=6c07710a
DTITLE=Hank Williams III - Hillbilly Joker
DYEAR=2011
DGENRE=Country
TTITLE0=Hillbilly Joker
TTITLE1=I'm Drunk Again
TTITLE2=Life Of Sin
TTITLE3=10 Feet Down
TTITLE4=Pistol Packin'
TTITLE5=Tennessee Driver
TTITLE6=M.F.J.
TTITLE7=Now He's Dead
TTITLE8=Drink It, Drug It.
TTITLE9=Hellbilly
EXTD=
EXTT0=
EXTT1=
EXTT2=
EXTT3=
EXTT4=
EXTT5=
EXTT6=
EXTT7=
EXTT8=
EXTT9=
PLAYORDER=
